<svg width="467" height="325" viewBox="0 0 467 325" fill="none" xmlns="http://www.w3.org/2000/svg">
<path d="M178.125 270.303C178.125 280.244 170.066 288.303 160.125 288.303C150.184 288.303 142.125 280.244 142.125 270.303C142.125 260.362 150.184 252.303 160.125 252.303C170.066 252.303 178.125 260.362 178.125 270.303Z" fill="#BF7959"/>
<path d="M261.791 53.4231C321.114 53.767 335.698 54.1421 344.271 55.5071C350 56.4136 357.968 57.9036 361.979 58.8206C365.989 59.7271 373.718 61.9255 379.166 63.7073C384.614 65.4891 392.812 68.7297 397.396 70.9075C401.979 73.0853 409.479 77.305 414.063 80.2747C418.646 83.2548 425.906 89.2782 430.208 93.6546C434.5 98.0413 440.667 105.606 443.896 110.461C447.125 115.327 450.99 121.767 452.49 124.779C453.979 127.79 456.583 134.355 458.271 139.366C459.958 144.378 462.334 153.413 463.563 159.425C464.906 166.042 466.011 176.337 466.344 185.475C466.761 196.676 466.447 203.814 465.135 213.087C464.156 219.964 462.198 229.582 460.771 234.449C459.354 239.315 456.469 247.296 454.365 252.162C452.271 257.028 448.26 264.541 445.458 268.834C442.667 273.138 436.333 280.671 431.385 285.6C426.437 290.518 419.114 296.666 415.104 299.271C411.093 301.865 404.292 305.522 400 307.398C395.698 309.284 388.906 311.941 384.896 313.306C380.885 314.681 373.156 316.922 367.708 318.308C362.26 319.683 353.364 321.58 347.916 322.518C341.364 323.643 330.979 324.279 317.188 324.404C305.729 324.497 272.333 324.466 189.583 324.06V315.724L195.573 315.099C198.864 314.745 204.375 313.577 207.813 312.483C211.25 311.399 215.594 309.451 217.469 308.169C219.334 306.877 222.042 303.48 226.063 295.405L226.052 189.121C226.031 115.171 225.677 81.5669 224.885 78.6702C224.187 76.1383 222.052 72.8668 219.427 70.3245C217.052 68.0322 213.229 65.5725 210.938 64.8743C208.646 64.1762 202.896 63.0091 189.552 60.9563L189.719 53.0061L261.791 53.4231ZM294.448 64.6038C281.646 64.6038 270.792 64.9165 270.313 65.302C269.834 65.6771 269.531 121.131 269.635 188.517C269.739 255.903 270.167 311.65 270.594 312.41C271.21 313.515 277.138 313.692 301.041 313.285C322.031 312.931 332.865 312.327 338.021 311.201C342.031 310.337 348.593 308.607 352.604 307.357C356.614 306.117 363.417 303.261 367.708 301.032C372.01 298.791 378.781 294.509 382.76 291.497C386.749 288.486 392.781 282.505 396.166 278.212C399.562 273.909 404.365 266.177 406.844 261.019C409.323 255.861 412.322 248.119 413.51 243.826C414.697 239.523 416.385 231.562 417.26 226.113C418.208 220.205 418.864 209.284 418.885 199.021C418.895 189.56 418.395 177.379 417.76 171.929C417.114 166.479 415.396 156.633 413.938 150.047C412.469 143.451 409.791 134.063 407.979 129.176C406.166 124.289 402.343 116.38 399.479 111.597C396.614 106.814 391.229 99.6044 387.5 95.5823C383.771 91.5498 378.146 86.2868 375 83.8694C371.855 81.4521 365.875 77.7747 361.719 75.6907C357.563 73.6067 350.771 70.97 346.615 69.8343C342.458 68.7089 334.26 67.0621 328.385 66.1868C321.281 65.1344 309.916 64.6038 294.448 64.6038Z" fill="#21201F"/>
<path d="M312.5 41.6797C310.781 41.961 304.844 42.9618 303.125 43.2432C300.386 43.7016 299.927 43.4093 299.386 40.8984C299.052 39.325 298.062 35.4486 297.177 32.3018C296.229 28.9153 294.437 25.508 292.771 23.9658C291.229 22.5279 288.125 20.788 285.864 20.0898C283.614 19.3917 278.26 18.3286 273.958 17.7139C269.655 17.0991 253.25 16.1616 237.5 15.6094C221.74 15.0675 181.083 14.6192 85.417 14.5879L80.7295 21.3613L80.208 143.795H97.917C109.615 143.795 118.365 143.253 123.698 142.2C128.136 141.314 134.062 139.325 136.864 137.772C139.666 136.21 144.041 132.594 146.583 129.729C149.125 126.863 152.354 122.174 153.75 119.309C155.156 116.443 156.875 110.931 158.854 100.011L169.792 100.031V206.314L158.854 206.335L157.562 198.771C156.854 194.561 154.687 187.965 152.708 183.912C150.739 179.901 147.052 174.274 144.511 171.408C141.959 168.543 137.583 164.937 134.781 163.395C131.979 161.852 126.875 159.821 123.438 158.862C119.24 157.706 110.76 156.914 78.1143 155.778L78.125 226.373C78.125 283.016 78.4059 297.635 79.5205 300.354C80.2914 302.22 82.6358 305.262 84.7295 307.127C86.9378 309.086 91.281 311.358 95.0518 312.504C98.6351 313.598 104.031 314.891 112.531 316.245L112.5 324.581L0 324.06V314.682L5.98926 314.066C9.28082 313.723 14.5621 312.535 17.708 311.431C20.8538 310.316 24.542 308.367 25.8857 307.096C27.2295 305.824 29.3337 302.907 32.8125 296.447V25.5293L30.4688 21.1006C29.1771 18.6623 26.3646 15.5151 24.2188 14.1084C22.0729 12.7017 17.5 10.8261 14.0625 9.94043C10.625 9.05474 6.05207 8.3252 3.90625 8.3252C0.0416667 8.33562 0 8.29426 0 4.16797V0H312.5V41.6797Z" fill="#21201F"/>
</svg>
