<svg width="181" height="60" viewBox="0 0 181 60" fill="none" xmlns="http://www.w3.org/2000/svg">
<g clip-path="url(#clip0_2175_2)">
<path d="M30 60C46.5685 60 60 46.5685 60 30C60 13.4315 46.5685 0 30 0C13.4315 0 0 13.4315 0 30C0 46.5685 13.4315 60 30 60Z" fill="#FCD100"/>
<path d="M36.6517 14.6914C36.725 14.9174 36.7678 15.1007 36.8349 15.2717C37.1415 16.1739 37.2863 17.1231 37.2626 18.0756C37.2546 19.5804 36.943 21.0681 36.3462 22.4495C36.1874 22.8282 36.053 23.207 35.9003 23.5857C35.7873 23.8617 35.7873 24.1711 35.9003 24.447C36.0148 24.8014 36.1772 25.1384 36.3829 25.4489C36.4955 25.5883 36.5521 25.7647 36.5417 25.9437C36.4782 25.9328 36.4181 25.9072 36.3661 25.869C36.3142 25.8309 36.2718 25.7811 36.2424 25.7238C36.0347 25.3756 35.8331 25.0274 35.6315 24.667C35.5786 24.5402 35.5513 24.4042 35.5513 24.2668C35.5513 24.1295 35.5786 23.9935 35.6315 23.8667C35.9247 22.9382 36.2424 22.0341 36.4867 21.0689C36.8463 19.7548 36.9459 18.3833 36.78 17.031C36.7436 16.7372 36.6823 16.447 36.5967 16.1636C36.2505 15.0314 35.8922 13.9054 35.5216 12.7855C35.2539 12.0555 34.9312 11.3469 34.5564 10.6657C33.8295 10.8795 33.1147 11.075 32.4122 11.3133C31.9831 11.4736 31.563 11.6572 31.1538 11.863C30.8682 12.0064 30.6382 12.2406 30.5002 12.5289C30.2681 12.9748 30.0115 13.4147 29.761 13.8484C29.2916 14.6957 28.8932 15.5804 28.5698 16.4935C28.5229 16.6398 28.4657 16.7827 28.3988 16.9211C28.3693 17.0021 28.3185 17.0738 28.2519 17.1285C28.1853 17.1833 28.1053 17.2193 28.02 17.2326C28.0218 17.1664 28.032 17.1007 28.0506 17.0371C28.2033 16.6706 28.3621 16.3102 28.5149 15.9498C28.5536 15.8438 28.5862 15.7357 28.6126 15.626C28.4838 15.6127 28.354 15.6382 28.24 15.6993C26.9449 16.1819 25.6926 16.75 24.4403 17.3426C22.724 18.166 21.0667 19.1069 19.48 20.1587C19.3488 20.2394 19.2296 20.3381 19.1257 20.4519C17.8331 21.9512 16.7123 23.5904 15.7842 25.3389C15.3994 26.072 15.094 26.8478 14.7641 27.6114C14.6302 27.9637 14.6173 28.3505 14.7274 28.7109C14.8681 29.2783 14.8319 29.8752 14.6236 30.4214C14.5949 30.515 14.556 30.6051 14.5075 30.6902C14.0553 31.5023 13.6475 32.3384 13.2858 33.1947C13.1025 33.5674 12.9009 33.9278 12.6749 34.2943C12.3328 34.9052 11.9785 35.5161 11.6303 36.1269C11.5753 36.2186 11.4959 36.3102 11.557 36.4568C11.6379 36.4429 11.7176 36.4225 11.7952 36.3957C12.7568 36.0297 13.7402 35.7237 14.7397 35.4794C14.8991 35.4385 15.0639 35.422 15.2284 35.4305C15.4361 35.4305 15.4971 35.5283 15.5277 35.7421C15.632 36.6097 15.4312 37.4866 14.9596 38.2222C14.6608 38.7664 14.2432 39.2362 13.7378 39.5967C13.7088 39.6249 13.6822 39.6556 13.6584 39.6883C13.7012 39.7555 13.7378 39.8288 13.7867 39.9021C14.2728 40.6191 14.8521 41.2682 15.5094 41.8325C15.6626 41.9543 15.8261 42.0627 15.9981 42.1563C16.22 42.2807 16.3957 42.4735 16.499 42.7061C16.6948 43.1115 16.9547 43.4828 17.2687 43.8056C17.4219 43.9447 17.5875 44.0694 17.7635 44.1783C17.875 44.2431 17.9812 44.3166 18.0811 44.3982C18.136 44.4531 18.2047 44.4923 18.2799 44.5116C18.3551 44.531 18.4342 44.5298 18.5087 44.5081C19.8036 44.2713 21.0542 43.8365 22.2167 43.2192C22.8379 42.9222 23.4327 42.5727 23.9944 42.1746L24.1532 42.0524C24.7633 41.6715 25.2775 41.1552 25.656 40.5436C25.776 40.3594 25.9087 40.1839 26.053 40.0182C26.5636 39.3559 26.8808 38.5651 26.9693 37.7335C26.9589 37.5443 27.0215 37.3583 27.1443 37.2139C27.2671 37.0695 27.4406 36.9778 27.6291 36.9577C27.7882 36.9204 27.9494 36.8918 28.1117 36.8722C28.1685 36.8653 28.2259 36.8653 28.2827 36.8722C28.3377 37.0066 28.2827 37.0799 28.2155 37.1654C28.0933 37.3487 27.9895 37.5381 27.8551 37.7091C27.7379 37.8669 27.6071 38.0141 27.4641 38.1489C27.212 38.389 27.005 38.6725 26.8533 38.9858C26.8335 39.0371 26.8191 39.0904 26.8105 39.1447C27.2082 39.0365 27.6225 39.0033 28.0323 39.0469C28.3927 39.0836 28.7531 39.1324 29.1074 39.1813C30.1153 39.3218 31.1233 39.4562 32.1618 39.615C33.0048 39.7494 33.8539 39.8777 34.6847 40.061C36.1781 40.399 37.5574 41.1213 38.6859 42.1563C40.0008 43.3355 41.1642 44.6733 42.1495 46.1392C42.9522 47.3403 43.6707 48.5956 44.2998 49.896C44.3137 49.9439 44.3137 49.9948 44.2998 50.0426L44.1288 49.841L43.9394 49.6089L41.3615 46.2064C40.4511 44.9967 39.4417 43.8647 38.3438 42.8221C36.897 41.4297 35.0679 40.5003 33.0903 40.1526C32.0824 39.9693 31.0622 39.8411 30.0359 39.6944C29.4251 39.6089 28.7775 39.5234 28.1422 39.4745C27.7943 39.4532 27.4455 39.4532 27.0976 39.4745C26.9449 39.4745 26.7922 39.4745 26.6089 39.4745C26.5295 39.6272 26.4379 39.7861 26.3585 39.9571C25.9915 40.7326 25.4672 41.4232 24.8191 41.9852C24.285 42.4217 23.7149 42.812 23.1147 43.152C22.325 43.6012 21.4813 43.9481 20.604 44.1844C19.9443 44.3921 19.2784 44.5814 18.6126 44.7403C18.3312 44.7831 18.0449 44.7831 17.7635 44.7403C17.5282 44.7032 17.3127 44.5868 17.1526 44.4104C16.8928 44.1324 16.6858 43.8095 16.5417 43.4574C16.4318 43.2192 16.3401 42.9748 16.2363 42.7305C16.1657 42.5465 16.0283 42.396 15.8514 42.309C14.9153 41.8448 14.0918 41.1818 13.4385 40.3664C13.3075 40.2018 13.2212 40.0061 13.188 39.7983C13.184 39.7381 13.1651 39.6799 13.1332 39.6287C13.1012 39.5776 13.0571 39.5351 13.0048 39.5051C12.6138 39.2778 12.2877 38.9539 12.0579 38.5643C11.7952 38.1917 11.5753 37.7885 11.3065 37.4098C11.1642 37.194 11.0833 36.9435 11.0725 36.6852C11.0617 36.4269 11.1215 36.1706 11.2455 35.9437C11.331 35.7299 11.4226 35.5222 11.5204 35.3328C11.6853 34.9846 11.838 34.6364 12.0274 34.3004C12.8073 32.929 13.5069 31.5135 14.1227 30.061C14.2604 29.7505 14.305 29.4067 14.251 29.0714C14.1715 28.4276 14.2469 27.7742 14.4709 27.1654C14.9303 25.8283 15.5628 24.557 16.3524 23.3841C16.7311 22.8221 17.1282 22.2723 17.5191 21.7103C17.6535 21.5148 17.7879 21.3133 17.904 21.0995C18.1645 20.6353 18.5156 20.2281 18.9364 19.9021C19.2051 19.7006 19.4434 19.4562 19.6999 19.2302C19.6266 18.9675 19.5411 18.717 19.4861 18.4666C19.2544 17.5524 19.0708 16.6267 18.9364 15.6932C18.9364 15.5894 18.8753 15.4855 18.8569 15.3817C18.8495 15.3576 18.8486 15.332 18.8545 15.3076C18.8603 15.2831 18.8726 15.2606 18.8901 15.2425C18.9076 15.2244 18.9296 15.2113 18.9538 15.2047C18.9781 15.198 19.0037 15.1979 19.028 15.2045C19.1254 15.2251 19.2198 15.2579 19.309 15.3023C19.7375 15.5236 20.2037 15.6624 20.6835 15.7115C21.5776 15.8238 22.4232 16.1811 23.1269 16.7439C23.2308 16.8233 23.3285 16.915 23.4446 17.0066C23.5132 16.9888 23.5806 16.9664 23.6462 16.9394C24.8211 16.3992 26.0266 15.928 27.2565 15.5283C27.6902 15.3878 28.13 15.2412 28.5698 15.1129C28.6489 15.0955 28.7208 15.0548 28.7764 14.9959C28.832 14.9371 28.8685 14.8629 28.8814 14.783C29.1566 13.8126 29.5354 12.8745 30.0115 11.9852C30.1242 11.7562 30.3057 11.5682 30.5307 11.4477C30.8911 11.24 31.2577 11.0445 31.6242 10.8368C32.29 10.479 32.9952 10.2002 33.7256 10.006C33.9604 9.95213 34.1996 9.91941 34.4403 9.90829C34.5222 9.90665 34.6027 9.92888 34.6722 9.97227C34.7416 10.0156 34.7969 10.0783 34.8313 10.1526C35.4749 11.2875 35.9912 12.4901 36.3707 13.7384C36.3865 13.778 36.3988 13.8189 36.4073 13.8606C36.4176 13.9259 36.451 13.9853 36.5015 14.0279C36.552 14.0705 36.6162 14.0935 36.6822 14.0927C37.0976 14.1355 37.5069 14.1966 37.904 14.2332C38.8959 14.3347 39.8797 14.5041 40.8484 14.7403C41.8834 14.9813 42.9033 15.2832 43.9028 15.6444C44.196 15.7421 44.4709 15.8765 44.7519 15.9987C44.8168 16.0333 44.8782 16.0742 44.9351 16.1208C44.742 16.1339 44.548 16.1153 44.3609 16.0659L43.1392 15.7726C42.1557 15.5283 41.166 15.3572 40.1703 15.2045L37.3175 14.7586C37.1465 14.7403 36.9266 14.7219 36.6517 14.6914ZM15.0634 36.1086C14.9679 36.1004 14.8718 36.1004 14.7763 36.1086C13.7412 36.1723 12.7166 36.3526 11.7219 36.6462C11.6338 36.6792 11.5497 36.7222 11.4715 36.7745C11.5692 36.9516 11.6303 37.1166 11.728 37.2571C11.9907 37.6297 12.2595 38.0023 12.5344 38.3688C12.8089 38.6666 13.0486 38.9945 13.2491 39.3462C13.2639 39.375 13.2824 39.4017 13.3041 39.4257C13.3218 39.4536 13.3456 39.4771 13.3737 39.4946C13.4018 39.512 13.4334 39.5229 13.4663 39.5264C13.4992 39.5299 13.5324 39.526 13.5636 39.5149C13.5947 39.5038 13.623 39.4858 13.6462 39.4623C13.6927 39.4326 13.7358 39.3978 13.7745 39.3585C14.2019 38.981 14.524 38.4989 14.7091 37.9596C14.8631 37.4572 14.9715 36.942 15.0329 36.4202C15.05 36.3171 15.0602 36.213 15.0634 36.1086ZM23.0964 17.1715C23.0109 17.1166 22.9437 17.0616 22.8704 17.0249C22.1706 16.6375 21.4036 16.3867 20.6101 16.2858C20.1917 16.2338 19.7884 16.0966 19.4251 15.8826C19.3617 15.857 19.2963 15.8365 19.2296 15.8215C19.3334 16.0964 19.4251 16.3285 19.5045 16.5668C19.7132 17.2247 19.8765 17.8962 19.9932 18.5765C19.9932 18.6865 19.9932 18.8148 20.1031 18.8942L23.0964 17.1715Z" fill="black"/>
<path d="M21.5888 28.5034L21.8087 28.1674C21.5358 28.0454 21.3022 27.85 21.1339 27.603C20.9656 27.356 20.8693 27.0671 20.8557 26.7685C20.8557 26.6769 20.8557 26.5791 20.813 26.4631L20.4648 26.3836C20.5258 26.3164 20.5503 26.2554 20.5991 26.2309C20.7177 26.1751 20.8402 26.1282 20.9657 26.0904C21.4605 25.9438 21.9492 25.7972 22.444 25.6628C22.6345 25.6078 22.8283 25.5649 23.0243 25.5345C23.1217 25.5224 23.2202 25.5224 23.3175 25.5345C23.345 25.5366 23.3718 25.5445 23.396 25.5576C23.4203 25.5708 23.4414 25.5889 23.4582 25.6109C23.4749 25.6328 23.4868 25.658 23.4931 25.6848C23.4994 25.7117 23.4999 25.7396 23.4947 25.7667C23.4977 25.789 23.4977 25.8116 23.4947 25.8339C23.4116 26.2946 23.2993 26.7496 23.1587 27.1961C23.06 27.4863 22.8998 27.7518 22.6889 27.9743C22.478 28.1967 22.2215 28.371 21.937 28.485C21.8369 28.518 21.7349 28.5445 21.6315 28.5645L21.5888 28.5034ZM21.4238 26.3959C21.3522 26.6741 21.3808 26.9687 21.5049 27.2279C21.6289 27.4871 21.8403 27.6943 22.1019 27.8131C22.5733 27.3864 22.8657 26.7972 22.9205 26.1637L21.4238 26.3959Z" fill="black"/>
<path d="M83.4087 20.4706L77.3916 10.6172H78.6683L84.0929 19.3771H85.1802L90.4521 10.6172H91.7227L85.8644 20.4706H85.1802V26.506H84.0929V20.4706H83.4087Z" fill="#111111"/>
<path d="M107.276 10.6172V11.6801H95.2969V17.9233H107.288V19.0167H95.2969V25.4187H107.288V26.506H94.1973V10.6233L107.276 10.6172Z" fill="#111111"/>
<path d="M110.837 10.6172V25.4187H121.986V26.506H109.768V10.6233L110.837 10.6172Z" fill="#111111"/>
<path d="M125.553 10.6172V25.4187H136.701V26.506H124.484V10.6233L125.553 10.6172Z" fill="#111111"/>
<path d="M155.088 18.5647C155.088 21.1466 154.355 23.1177 152.889 24.4779C151.423 25.8381 149.312 26.5142 146.555 26.506C143.769 26.506 141.653 25.83 140.208 24.4779C138.762 23.1259 138.045 21.1548 138.057 18.5647C138.057 15.9461 138.798 13.9668 140.281 12.627C141.763 11.2871 143.867 10.6172 146.591 10.6172C149.316 10.6172 151.417 11.2708 152.895 12.5781C154.374 13.8854 155.105 15.8809 155.088 18.5647ZM154.001 18.4914C154.001 13.9709 151.541 11.7086 146.622 11.7046C144.081 11.7046 142.195 12.2808 140.965 13.4333C139.743 14.5818 139.132 16.2922 139.132 18.5647C139.132 20.8371 139.743 22.5781 141.008 23.7143C142.272 24.8506 144.129 25.4187 146.628 25.4187C149.126 25.4187 150.977 24.8078 152.187 23.5861C153.396 22.3643 154.001 20.6905 154.001 18.4914Z" fill="#111111"/>
<path d="M161.399 26.506L156.542 10.6233H157.52L162.492 26.4388L167.489 10.6172H169.823L175.113 26.4633L179.597 10.6172H180.733L176.237 26.4999H173.971L168.674 10.6539L163.653 26.4999L161.399 26.506Z" fill="#111111"/>
<path d="M80.1345 49.3828H77.3184V34.447H86.1333C86.8481 34.4355 87.5587 34.5577 88.2286 34.8074C88.8147 35.0365 89.3486 35.3814 89.7985 35.8214C90.2461 36.2664 90.5939 36.8016 90.8187 37.3914C91.0699 38.044 91.1943 38.7385 91.1852 39.4378C91.2024 40.1564 91.0408 40.868 90.7148 41.5086C90.4202 42.0743 90.0027 42.5669 89.4931 42.9503C88.9518 43.3324 88.3482 43.6177 87.7093 43.7933C87.0346 43.9777 86.338 44.0702 85.6385 44.0682H80.1406L80.1345 49.3828ZM80.1345 41.5514H85.6323C86.3069 41.596 86.9773 41.4155 87.5383 41.0383C87.7714 40.8457 87.9543 40.5995 88.0713 40.3208C88.1883 40.042 88.236 39.739 88.2102 39.4378C88.2422 39.0895 88.1945 38.7386 88.0707 38.4115C87.9468 38.0845 87.7501 37.7899 87.4955 37.5502C86.9301 37.1208 86.2315 36.9045 85.5224 36.9393H80.1223L80.1345 41.5514Z" fill="#111111"/>
<path d="M100.623 34.4473L105.871 49.3832H102.816L101.686 46.0539H93.7449L92.523 49.3832H89.4688L94.8688 34.4473H97.7277L94.4656 43.6654H100.868L97.7277 34.4473H100.623Z" fill="#111111"/>
<path d="M106.769 49.3832V34.4473H109.542V49.3832H106.769ZM121.149 34.4473V49.3832H115.541L109.542 34.4473H112.358L118.375 49.3832V34.4473H121.149Z" fill="#111111"/>
<path d="M136.225 34.4473V37.068H130.605V49.3832H127.788V37.068H122.217V34.4473H136.225Z" fill="#111111"/>
<path d="M152.107 34.4473V49.3832H149.297V43.1706H140.079V49.3832H137.263V34.4473H140.079V40.5561H149.297V34.4473H152.107Z" fill="#111111"/>
<path d="M165.468 34.4473V37.068H155.999V40.5927H165.468V43.0362H155.999V46.7015H165.468V49.3282H153.177V34.4473H165.468Z" fill="#111111"/>
<path d="M169.352 49.3832H166.536V34.4473H175.18C175.838 34.4498 176.494 34.5091 177.141 34.6245C177.779 34.7334 178.397 34.9394 178.974 35.2354C179.508 35.5217 179.97 35.9272 180.324 36.4205C180.69 36.9733 180.874 37.627 180.849 38.2897C180.857 38.7742 180.711 39.2488 180.434 39.6459C180.153 40.0371 179.798 40.3692 179.389 40.6233C178.964 40.8904 178.503 41.0961 178.021 41.2341C177.58 41.3676 177.124 41.4455 176.664 41.4663H180.849V49.3832H177.837V43.9831H169.346L169.352 49.3832ZM169.352 36.9641V41.4846H175.156C175.526 41.4889 175.895 41.4353 176.249 41.3258C176.574 41.2275 176.876 41.0678 177.141 40.8554C177.406 40.6465 177.619 40.3788 177.763 40.0735C177.908 39.7682 177.979 39.4336 177.972 39.0961C177.983 38.7376 177.897 38.3827 177.721 38.0698C177.555 37.8076 177.331 37.5862 177.068 37.4223C176.791 37.2529 176.487 37.1331 176.17 37.068C175.844 37.0005 175.512 36.9657 175.18 36.9641H169.352Z" fill="#111111"/>
</g>
<defs>
<clipPath id="clip0_2175_2">
<rect width="181" height="60" fill="white"/>
</clipPath>
</defs>
</svg>
